<svg width="896" height="643" viewBox="0 0 896 643" fill="none" xmlns="http://www.w3.org/2000/svg">
<g filter="url(#filter0_f_2214_17)">
<rect x="150" y="150" width="596" height="343" rx="171.5" fill="#CEE8FF"/>
</g>
<path d="M603.834 395.041H275.612C275.612 395.041 246.044 356.991 250.499 324.996C254.954 293.001 292.799 277.011 308.999 251.496C325.199 225.981 310.999 193.996 357.999 176.496C404.999 158.996 437.499 194.971 463.499 194.971C489.499 194.971 511.999 180.496 541.999 203.496C571.999 226.496 553.999 243.996 570.499 264.996C586.999 285.996 606.673 267.496 623.499 310.496C640.325 353.496 603.834 395.041 603.834 395.041Z" fill="#F0F8FF"/>
<path d="M506.995 366.485C507.627 366.787 508.192 367.214 508.656 367.739C509.12 368.264 509.473 368.877 509.695 369.542C510.127 370.877 510.249 372.293 510.053 373.683C509.749 376.373 508.22 379.073 506.579 381.234C504.315 379.274 503.795 375.814 503.639 374.05C503.394 371.257 504.648 366.068 506.995 366.485Z" fill="#92E3A9"/>
<path d="M509.411 385.943C509.201 385.188 509.195 384.391 509.393 383.633C509.591 382.875 509.986 382.182 510.538 381.626C511.097 381.08 511.761 380.65 512.488 380.363C513.216 380.077 513.994 379.938 514.776 379.955C515.135 379.923 515.497 379.97 515.836 380.094C516.175 380.218 516.482 380.414 516.736 380.671C516.933 380.947 517.052 381.27 517.082 381.608C517.111 381.946 517.049 382.286 516.903 382.591C516.605 383.2 516.15 383.717 515.585 384.091C513.718 385.463 511.665 386.443 509.401 385.943" fill="#92E3A9"/>
<path d="M506.426 393.872C506.416 393.682 506.438 393.491 506.49 393.308C506.554 392.946 506.656 392.431 506.799 391.794C507.146 390.119 507.717 388.499 508.499 386.978C509.3 385.443 510.503 384.154 511.978 383.249C512.426 382.983 512.907 382.775 513.409 382.631C513.588 382.567 513.777 382.531 513.967 382.523C513.319 382.779 512.692 383.083 512.091 383.435C510.69 384.363 509.547 385.631 508.768 387.12C508.002 388.621 507.412 390.206 507.009 391.843C506.856 392.531 506.661 393.208 506.426 393.872Z" fill="#263238"/>
<path d="M506.505 370.547C506.559 370.854 506.589 371.166 506.593 371.478C506.632 372.081 506.672 372.948 506.711 374.026C506.794 376.182 506.853 379.156 506.843 382.449C506.833 385.742 506.74 388.711 506.642 390.867C506.593 391.945 506.544 392.827 506.5 393.415C506.495 393.728 506.464 394.039 506.407 394.346C506.37 394.036 506.361 393.722 506.383 393.41C506.383 392.754 506.412 391.896 506.427 390.857C506.471 388.706 506.525 385.732 506.539 382.444C506.554 379.156 506.539 376.187 506.5 374.031C506.5 372.997 506.5 372.139 506.476 371.483C506.457 371.171 506.467 370.857 506.505 370.547Z" fill="#263238"/>
<path d="M505.231 387.385C504.992 385.751 504.367 384.197 503.407 382.852C502.448 381.507 501.181 380.411 499.713 379.653C498.969 379.276 497.984 379.016 497.352 379.565C496.72 380.114 496.837 381.128 497.121 381.917C497.753 383.553 498.854 384.967 500.286 385.979C501.719 386.991 503.419 387.557 505.172 387.606" fill="#92E3A9"/>
<path d="M499.934 382.164C500.106 382.211 500.271 382.28 500.424 382.37C500.62 382.455 500.808 382.554 500.988 382.669C501.235 382.807 501.474 382.959 501.703 383.124C502.306 383.549 502.864 384.034 503.369 384.57C503.982 385.234 504.523 385.962 504.981 386.741C505.426 387.528 505.784 388.361 506.05 389.225C506.262 389.932 506.402 390.66 506.466 391.396C506.497 391.675 506.51 391.957 506.505 392.238C506.522 392.452 506.522 392.667 506.505 392.88C506.505 393.063 506.479 393.244 506.427 393.419C506.368 393.419 506.427 392.64 506.28 391.42C506.179 390.703 506.015 389.996 505.79 389.308C505.514 388.47 505.156 387.661 504.722 386.893C504.274 386.134 503.754 385.42 503.168 384.761C502.682 384.227 502.151 383.735 501.581 383.291C500.625 382.556 499.905 382.228 499.934 382.164Z" fill="#263238"/>
<mask id="path-9-inside-1_2214_17" fill="white">
<path d="M418.2 247.219C418.2 245.877 419.288 244.789 420.63 244.789H534.03C535.372 244.789 536.46 245.877 536.46 247.219V293.389C536.46 294.731 535.372 295.819 534.03 295.819H420.63C419.288 295.819 418.2 294.731 418.2 293.389V247.219Z"/>
</mask>
<path d="M418.2 247.219C418.2 245.877 419.288 244.789 420.63 244.789H534.03C535.372 244.789 536.46 245.877 536.46 247.219V293.389C536.46 294.731 535.372 295.819 534.03 295.819H420.63C419.288 295.819 418.2 294.731 418.2 293.389V247.219Z" fill="#49A0FD"/>
<path d="M418.2 247.219C418.2 243.193 421.464 239.929 425.49 239.929H529.17C533.196 239.929 536.46 243.193 536.46 247.219V249.649C536.46 249.649 535.372 249.649 534.03 249.649H420.63C419.288 249.649 418.2 249.649 418.2 249.649V247.219ZM536.46 295.819H418.2H536.46ZM418.2 295.819V244.789V295.819ZM536.46 244.789V295.819V244.789Z" fill="#0C029A" mask="url(#path-9-inside-1_2214_17)"/>
<rect x="346.11" y="225.349" width="116.64" height="90.72" rx="1.62" fill="white" stroke="#0938A4" stroke-width="1.62"/>
<path d="M509.688 255.523H496.325V257.982H509.688V255.523Z" fill="white"/>
<path d="M505.105 259.078H496.325V261.537H505.105V259.078Z" fill="white"/>
<path d="M501.381 262.625H496.325V265.084H501.381V262.625Z" fill="white"/>
<path d="M509.688 255.523H496.325V257.982H509.688V255.523Z" fill="white"/>
<path d="M505.105 259.078H496.325V261.537H505.105V259.078Z" fill="white"/>
<path d="M501.381 262.625H496.325V265.084H501.381V262.625Z" fill="white"/>
<path d="M473.121 282.746V290.148H477.653V282.746H473.121Z" fill="white"/>
<path d="M479.668 285.288V290.148H484.199V285.288H479.668Z" fill="white"/>
<path d="M486.21 287.351V290.148H490.741V287.351H486.21Z" fill="white"/>
<g opacity="0.2">
<path d="M473.121 282.746V290.148H477.653V282.746H473.121Z" fill="black"/>
<path d="M479.668 285.288V290.148H484.199V285.288H479.668Z" fill="black"/>
<path d="M486.21 287.351V290.148H490.741V287.351H486.21Z" fill="black"/>
</g>
<path d="M506.705 283.148H526.27" stroke="#263238" stroke-width="0.861108" stroke-miterlimit="10"/>
<path d="M506.705 284.82H526.27" stroke="#263238" stroke-width="0.861108" stroke-miterlimit="10"/>
<path d="M506.705 286.492H526.27" stroke="#263238" stroke-width="0.861108" stroke-miterlimit="10"/>
<path d="M506.705 288.164H526.27" stroke="#263238" stroke-width="0.861108" stroke-miterlimit="10"/>
<path d="M506.705 289.836H526.27" stroke="#263238" stroke-width="0.861108" stroke-miterlimit="10"/>
<path d="M472.521 255.891H492.087" stroke="#263238" stroke-width="0.861108" stroke-miterlimit="10"/>
<path d="M472.521 257.562H492.087" stroke="#263238" stroke-width="0.861108" stroke-miterlimit="10"/>
<path d="M472.521 259.227H492.087" stroke="#263238" stroke-width="0.861108" stroke-miterlimit="10"/>
<path d="M472.521 260.898H492.087" stroke="#263238" stroke-width="0.861108" stroke-miterlimit="10"/>
<path d="M472.521 262.578H492.087" stroke="#263238" stroke-width="0.861108" stroke-miterlimit="10"/>
<path d="M523.821 269.024L527.55 270.589L527.13 262.188L518.218 266.679L521.947 268.24L519.143 272.504C518.647 272.506 518.166 272.639 517.774 272.881L512.837 271.049C512.837 270.567 512.597 270.105 512.17 269.764C511.744 269.423 511.165 269.231 510.562 269.231C509.958 269.231 509.38 269.423 508.953 269.764C508.526 270.105 508.287 270.567 508.287 271.049C508.286 271.309 508.357 271.567 508.494 271.803L502.023 277.406C501.817 277.354 501.602 277.326 501.386 277.323C501.276 277.326 501.168 277.335 501.06 277.35L491.756 267.957C491.89 267.72 491.958 267.463 491.955 267.203C491.955 266.721 491.715 266.258 491.288 265.917C490.862 265.577 490.283 265.385 489.679 265.385C489.076 265.385 488.497 265.577 488.071 265.917C487.644 266.258 487.404 266.721 487.404 267.203C487.409 267.39 487.449 267.575 487.522 267.753L476.897 276.396C476.647 276.323 476.384 276.285 476.118 276.283C475.669 276.283 475.231 276.39 474.858 276.59C474.485 276.79 474.195 277.073 474.024 277.405C473.853 277.736 473.809 278.101 473.897 278.453C473.985 278.804 474.201 279.127 474.519 279.38C474.837 279.634 475.241 279.806 475.682 279.876C476.122 279.945 476.578 279.909 476.993 279.772C477.407 279.634 477.762 279.402 478.011 279.104C478.26 278.806 478.393 278.455 478.393 278.096C478.392 277.946 478.367 277.797 478.318 277.651L489.033 268.911C489.242 268.963 489.46 268.991 489.679 268.994C489.819 268.994 489.958 268.983 490.095 268.964L499.351 278.338C499.184 278.605 499.102 278.902 499.112 279.201C499.122 279.5 499.225 279.792 499.41 280.052C499.596 280.311 499.859 280.531 500.176 280.69C500.493 280.849 500.854 280.943 501.228 280.964C501.601 280.985 501.975 280.931 502.317 280.809C502.659 280.687 502.957 280.499 503.186 280.262C503.415 280.026 503.567 279.748 503.63 279.453C503.692 279.158 503.662 278.855 503.543 278.572L510.179 272.829C510.306 272.847 510.434 272.857 510.562 272.859C511.013 272.859 511.453 272.752 511.827 272.55L516.877 274.435C516.897 274.715 516.997 274.987 517.17 275.231C517.344 275.474 517.585 275.683 517.876 275.839C518.167 275.996 518.499 276.096 518.847 276.133C519.195 276.17 519.548 276.141 519.88 276.051C520.212 275.96 520.513 275.809 520.759 275.61C521.006 275.41 521.191 275.168 521.301 274.902C521.411 274.636 521.442 274.353 521.392 274.076C521.341 273.799 521.212 273.534 521.012 273.304L523.821 269.024Z" fill="#263238"/>
<path d="M454.72 330.023H446.268L443.31 340.553H457.89L454.72 330.023Z" fill="#0938A4"/>
<rect x="397.545" y="283.452" width="106.11" height="46.17" rx="2.025" fill="url(#paint0_linear_2214_17)" stroke="#0938A4" stroke-width="0.81"/>
<g opacity="0.8">
<path d="M436.83 308.156H467.61" stroke="white" stroke-width="0.81" stroke-linecap="square"/>
<path d="M436.83 310.586H467.61" stroke="white" stroke-width="0.81" stroke-linecap="square"/>
<path d="M436.83 313.016H467.61" stroke="white" stroke-width="0.81" stroke-linecap="square"/>
<path d="M436.83 315.445H467.61" stroke="white" stroke-width="0.81" stroke-linecap="square"/>
<path d="M436.83 317.875H467.61" stroke="white" stroke-width="0.81" stroke-linecap="square"/>
<path d="M436.83 320.305H467.61" stroke="white" stroke-width="0.81" stroke-linecap="square"/>
</g>
<g opacity="0.8">
<path d="M477.33 292.766H487.05" stroke="white" stroke-width="0.81" stroke-linecap="square"/>
<path d="M477.33 295.195H495.15" stroke="white" stroke-width="0.81" stroke-linecap="square"/>
<path d="M477.33 297.625H491.1" stroke="white" stroke-width="0.81" stroke-linecap="square"/>
<path d="M477.33 300.055H495.15" stroke="white" stroke-width="0.81" stroke-linecap="square"/>
<path d="M477.33 302.484H495.15" stroke="white" stroke-width="0.81" stroke-linecap="square"/>
<path d="M477.33 304.914H495.15" stroke="white" stroke-width="0.81" stroke-linecap="square"/>
</g>
<path d="M419.819 297.628C419.819 298.997 419.386 300.33 418.582 301.437C417.777 302.544 416.643 303.368 415.342 303.791C414.04 304.214 412.638 304.214 411.337 303.791C410.035 303.368 408.901 302.544 408.097 301.437C407.293 300.33 406.859 298.997 406.859 297.628C406.859 296.26 407.293 294.927 408.097 293.82C408.901 292.712 410.035 291.888 411.337 291.466C412.638 291.043 414.04 291.043 415.342 291.466L413.339 297.628H419.819Z" fill="#FDB018"/>
<path d="M416.358 290.668C417.658 291.1 418.787 291.933 419.583 293.047C420.38 294.161 420.803 295.499 420.792 296.868L414.312 296.816L416.358 290.668Z" fill="#FFF5F8"/>
<path d="M406.854 308.359H414.965" stroke="white" stroke-width="0.81" stroke-linecap="square"/>
<path d="M406.859 310.789H423.059" stroke="white" stroke-width="0.81" stroke-linecap="square"/>
<path d="M406.859 313.219H423.059" stroke="white" stroke-width="0.81" stroke-linecap="square"/>
<circle cx="440.88" cy="296.816" r="4.05" fill="#41FEFE"/>
<circle cx="452.22" cy="296.816" r="4.05" fill="#41FEFE"/>
<circle cx="463.56" cy="296.816" r="4.05" fill="#41FEFE"/>
<path d="M568.077 388.812H571.203V351.335H568.077V388.812Z" fill="#455A64"/>
<path d="M547.506 353.026H592.245C592.245 352.389 592.12 351.757 591.876 351.168C591.632 350.579 591.274 350.044 590.824 349.594C590.373 349.143 589.838 348.785 589.249 348.541C588.66 348.297 588.029 348.172 587.391 348.172H552.36C551.723 348.172 551.091 348.297 550.502 348.541C549.913 348.785 549.378 349.143 548.928 349.594C548.477 350.044 548.119 350.579 547.875 351.168C547.631 351.757 547.506 352.389 547.506 353.026Z" fill="#263238"/>
<path d="M566.602 353.123C568.428 353.272 570.263 353.272 572.089 353.123C570.263 352.969 568.427 352.969 566.602 353.123Z" fill="#263238"/>
<path d="M555.953 392.208H556.38C556.443 388.719 557.873 385.393 560.362 382.948C562.852 380.503 566.202 379.133 569.692 379.133C573.182 379.133 576.532 380.503 579.021 382.948C581.511 385.393 582.941 388.719 583.003 392.208H583.431C583.463 390.381 583.131 388.567 582.455 386.87C581.778 385.173 580.77 383.629 579.49 382.326C578.21 381.023 576.683 379.988 574.998 379.281C573.314 378.575 571.506 378.211 569.679 378.211C567.852 378.211 566.044 378.575 564.36 379.281C562.675 379.988 561.148 381.023 559.868 382.326C558.588 383.629 557.58 385.173 556.903 386.87C556.227 388.567 555.895 390.381 555.927 392.208H555.953Z" fill="#455A64"/>
<path d="M581.186 392.886C581.186 393.295 581.307 393.694 581.534 394.034C581.761 394.373 582.083 394.638 582.461 394.794C582.838 394.951 583.254 394.992 583.654 394.912C584.055 394.832 584.423 394.636 584.712 394.347C585.001 394.058 585.198 393.69 585.277 393.289C585.357 392.888 585.316 392.473 585.16 392.095C585.003 391.718 584.739 391.395 584.399 391.168C584.059 390.941 583.66 390.82 583.251 390.82C582.98 390.82 582.711 390.873 582.46 390.976C582.209 391.08 581.981 391.232 581.789 391.424C581.597 391.616 581.445 391.844 581.342 392.095C581.238 392.346 581.185 392.615 581.186 392.886Z" fill="#263238"/>
<path d="M554.011 392.6C554.01 393.009 554.13 393.409 554.357 393.75C554.584 394.09 554.906 394.356 555.284 394.512C555.662 394.669 556.077 394.711 556.478 394.631C556.879 394.551 557.248 394.355 557.537 394.065C557.826 393.776 558.023 393.408 558.103 393.007C558.182 392.606 558.141 392.19 557.984 391.812C557.827 391.435 557.562 391.112 557.221 390.885C556.881 390.659 556.481 390.538 556.072 390.539C555.525 390.539 555.001 390.756 554.615 391.143C554.228 391.529 554.011 392.054 554.011 392.6Z" fill="#455A64"/>
<path d="M556.089 388.811C556.089 388.875 562.076 388.926 569.454 388.926C576.831 388.926 582.819 388.875 582.819 388.811C582.819 388.747 576.831 388.695 569.454 388.695C562.076 388.695 556.089 388.747 556.089 388.811Z" fill="#455A64"/>
<path d="M593.562 314.226V341.815C593.562 343.553 592.872 345.22 591.643 346.448C590.414 347.677 588.748 348.367 587.01 348.367H565.75L568.637 314.226C568.637 313.842 568.712 313.462 568.859 313.108C569.006 312.753 569.221 312.431 569.492 312.16C569.764 311.889 570.086 311.674 570.44 311.527C570.794 311.38 571.174 311.305 571.558 311.305H590.641C591.416 311.305 592.159 311.612 592.706 312.16C593.254 312.708 593.562 313.451 593.562 314.226Z" fill="#263238"/>
<path d="M586.044 348.173L586.095 348.092L586.249 347.865C586.39 347.668 586.591 347.378 586.835 347.01C587.517 345.914 588.049 344.731 588.418 343.494C588.675 342.643 588.852 341.77 588.944 340.885C589.032 339.867 589.06 338.845 589.029 337.823C589.029 335.651 589.029 333.273 589.029 330.771C589.029 325.775 589.055 321.255 589.063 317.94C589.063 316.315 589.089 314.994 589.098 314.057V313.001C589.095 312.878 589.102 312.755 589.119 312.633C589.131 312.755 589.131 312.878 589.119 313.001C589.119 313.262 589.119 313.612 589.119 314.057C589.119 314.994 589.14 316.315 589.157 317.94C589.157 321.238 589.157 325.758 589.187 330.771C589.187 333.273 589.187 335.651 589.187 337.823C589.214 338.852 589.178 339.882 589.08 340.907C588.979 341.801 588.793 342.683 588.524 343.541C588.138 344.786 587.578 345.969 586.861 347.057C586.604 347.437 586.395 347.724 586.241 347.912C586.183 348.005 586.117 348.092 586.044 348.173Z" fill="#455A64"/>
<path d="M574.471 348.185C574.694 348.15 574.92 348.137 575.146 348.146L576.985 348.125C578.542 348.125 580.693 348.125 583.067 348.125C584.252 348.125 585.385 348.125 586.412 348.163C587.33 348.148 588.247 348.249 589.14 348.463C589.743 348.625 590.304 348.917 590.782 349.318C590.912 349.427 591.031 349.547 591.137 349.677C591.214 349.763 591.253 349.81 591.244 349.814C591.236 349.819 591.073 349.648 590.727 349.387C590.244 349.019 589.691 348.755 589.102 348.613C588.217 348.421 587.312 348.338 586.407 348.364L583.063 348.343C580.689 348.343 578.542 348.3 576.985 348.27L575.146 348.219C574.921 348.227 574.695 348.216 574.471 348.185Z" fill="#455A64"/>
<path d="M584.889 320.621C584.388 316.485 583.725 312.961 583.725 312.961H574.77C574.77 312.961 575.882 318.204 575.625 319.423C575.411 320.48 558.043 321.185 553.518 321.254C553.249 321.053 552.856 321.391 552.509 321.087C552.199 320.818 551.939 320.496 551.739 320.137C551.468 319.701 551.26 319.229 551.119 318.735C551.108 318.639 551.067 318.55 551.003 318.478C550.939 318.407 550.854 318.357 550.761 318.335C550.667 318.314 550.569 318.322 550.48 318.358C550.391 318.394 550.316 318.457 550.264 318.538C550.084 318.927 550.289 320.219 551.149 321.463C552.009 322.708 549.755 322.062 548.929 321.844C548.104 321.626 545.508 321.061 545.251 321.266C544.858 321.57 545.106 322.058 545.936 322.259C546.765 322.46 549.207 323.242 549.075 323.683C548.942 324.123 544.755 322.934 544.755 322.934C544.755 322.934 543.9 322.532 543.729 323.037C543.421 323.948 547.963 324.868 548.395 324.945C548.698 325 548.57 325.483 548.249 325.411C547.929 325.338 544.097 324.128 543.776 325.056C543.528 325.761 547.505 325.847 548.164 326.548C548.822 327.25 545.17 326.172 544.943 326.856C544.862 327.113 546.389 327.233 548.583 327.541C550.836 327.756 553.099 327.836 555.362 327.78C560.451 328.062 578.431 328.43 582.271 328.161C586.745 327.844 585.06 322.041 584.889 320.621Z" fill="#FFBE9D"/>
<path d="M531.446 299.179C531.446 299.179 528.978 296.66 528.499 296.561C528.02 296.463 523.397 294.141 523.397 294.141C523.322 294.224 523.265 294.323 523.231 294.43C523.197 294.537 523.186 294.65 523.199 294.762C523.212 294.873 523.248 294.981 523.306 295.078C523.364 295.174 523.442 295.257 523.534 295.321C524.218 295.864 525.835 296.844 525.835 296.844L524.693 299.097C524.693 299.097 525.788 302.754 525.976 302.681C526.164 302.609 526.361 301.963 526.361 301.963L526.015 300.808L528.251 302.677L529.222 302.566L531.446 299.179Z" fill="#FFB29D"/>
<path d="M529.543 297.962C529.004 297.753 528.483 297.499 527.986 297.205L526.767 296.88L526.904 296.786C526.885 297.156 527 297.521 527.229 297.812C527.567 298.24 527.991 298.593 528.473 298.847L528.555 298.89L528.525 298.971C528.325 299.522 528.307 300.121 528.473 300.682C528.593 301.11 528.726 301.319 528.704 301.332C528.538 301.161 528.419 300.951 528.358 300.721C528.139 300.138 528.13 299.496 528.332 298.907L528.384 299.031C527.862 298.776 527.405 298.404 527.049 297.945C526.788 297.611 526.66 297.192 526.69 296.769V296.641L526.814 296.675L528.024 297.038C528.553 297.307 529.061 297.616 529.543 297.962Z" fill="#EB9078"/>
<path d="M525.411 299.133C525.625 300.101 525.946 301.042 526.369 301.938C526.58 301.678 526.726 301.372 526.797 301.045" fill="#FFB29D"/>
<path d="M526.805 301.045C526.812 301.397 526.683 301.738 526.446 301.998L526.356 302.118L526.284 301.977C526.133 301.684 525.999 301.383 525.882 301.074C525.605 300.462 525.445 299.804 525.411 299.133C525.475 299.133 525.693 299.988 526.087 300.993C526.215 301.327 526.343 301.635 526.459 301.896L526.296 301.874C526.489 301.612 526.659 301.335 526.805 301.045Z" fill="#EB9078"/>
<path d="M526.87 297.453C527.058 297.747 527.202 298.067 527.298 298.403C527.433 298.762 527.523 299.137 527.563 299.519C527.618 299.997 527.55 300.481 527.366 300.926C527.284 301.115 527.176 301.292 527.045 301.452L526.934 301.58L526.862 301.426C526.559 300.782 526.318 300.11 526.143 299.42C526.053 299.144 526.005 298.856 526.002 298.565C526.062 298.565 526.331 299.81 527.058 301.319H526.874C526.991 301.176 527.088 301.018 527.161 300.849C527.437 300.076 527.437 299.231 527.161 298.458C527.042 298.13 526.944 297.794 526.87 297.453Z" fill="#EB9078"/>
<path d="M531.446 299.18L548.972 311.044L543.857 317.437L529.239 302.546L531.446 299.18Z" fill="#FFB29D"/>
<path d="M550.063 392.756L549.978 388.445L558.048 388.227L558.245 394.531L557.744 394.578C555.52 394.762 546.424 395.352 544.914 394.941C543.25 394.466 550.063 392.756 550.063 392.756Z" fill="#7E57C2"/>
<g opacity="0.5">
<path d="M555.314 394.53C555.415 393.845 555.765 393.222 556.298 392.781C556.818 392.34 557.486 392.112 558.167 392.143L558.231 394.397L555.314 394.53Z" fill="white"/>
</g>
<g opacity="0.4">
<path d="M546.736 393.695C546.736 393.695 544.353 394.452 544.661 394.841C544.969 395.231 554.186 394.974 558.244 394.508L558.223 394.328L547.48 394.717C547.48 394.717 547.206 393.704 546.736 393.695Z" fill="white"/>
</g>
<path d="M558.352 394.32H558.215L557.817 394.355L556.35 394.457C555.114 394.534 553.399 394.62 551.509 394.675C549.618 394.731 547.903 394.739 546.663 394.731L545.196 394.71H544.794H544.657C544.703 394.703 544.749 394.703 544.794 394.71H545.196H546.663C547.903 394.71 549.614 394.68 551.509 394.624C553.403 394.568 555.11 394.496 556.346 394.436L557.813 394.363H558.21C558.255 394.343 558.303 394.329 558.352 394.32Z" fill="#263238"/>
<path d="M547.484 394.842C547.415 394.6 547.317 394.368 547.193 394.149C547.041 393.948 546.868 393.765 546.676 393.602C546.929 393.688 547.142 393.865 547.275 394.098C547.434 394.311 547.508 394.576 547.484 394.842Z" fill="#263238"/>
<path d="M549.832 393.574C549.81 393.574 549.691 393.454 549.571 393.27C549.451 393.086 549.366 392.928 549.387 392.915C549.408 392.902 549.528 393.035 549.652 393.219C549.776 393.402 549.853 393.561 549.832 393.574Z" fill="#263238"/>
<path d="M550.478 393.204C550.478 393.226 550.329 393.144 550.188 393.025C550.046 392.905 549.944 392.785 549.961 392.768C549.978 392.751 550.111 392.828 550.252 392.948C550.393 393.067 550.495 393.183 550.478 393.204Z" fill="#263238"/>
<path d="M550.867 392.431C550.867 392.461 550.683 392.491 550.439 392.5C550.296 392.52 550.15 392.508 550.012 392.466C550.148 392.413 550.294 392.391 550.439 392.401C550.582 392.38 550.728 392.39 550.867 392.431Z" fill="#263238"/>
<path d="M550.996 391.898C550.858 391.993 550.696 392.045 550.53 392.048C550.366 392.082 550.195 392.064 550.042 391.997C550.2 391.966 550.36 391.951 550.521 391.95C550.677 391.918 550.836 391.901 550.996 391.898Z" fill="#263238"/>
<path d="M549.537 392.869C549.364 392.901 549.187 392.901 549.015 392.869C548.827 392.85 548.641 392.814 548.459 392.762C548.349 392.733 548.243 392.693 548.142 392.643C548.08 392.608 548.033 392.551 548.01 392.484C547.999 392.446 548.001 392.406 548.014 392.368C548.027 392.331 548.051 392.298 548.082 392.275C548.278 392.171 548.502 392.139 548.719 392.184C548.935 392.228 549.129 392.346 549.267 392.518C549.349 392.619 549.409 392.736 549.443 392.861C549.468 392.95 549.468 392.997 549.443 393.002C549.387 392.845 549.303 392.7 549.194 392.574C549.08 392.445 548.932 392.349 548.767 392.296C548.562 392.234 548.34 392.256 548.151 392.356C548.07 392.42 548.104 392.514 548.198 392.57C548.292 392.618 548.391 392.656 548.493 392.685C548.668 392.738 548.847 392.78 549.028 392.809C549.34 392.861 549.537 392.856 549.537 392.869Z" fill="#263238"/>
<path d="M549.404 392.901C549.34 392.793 549.316 392.666 549.336 392.541C549.348 392.405 549.393 392.275 549.469 392.161C549.51 392.081 549.571 392.014 549.646 391.965C549.721 391.917 549.807 391.888 549.896 391.883C549.949 391.893 549.996 391.923 550.027 391.967C550.058 392.011 550.071 392.065 550.063 392.118C550.052 392.201 550.025 392.281 549.982 392.353C549.917 392.47 549.838 392.578 549.747 392.674C549.668 392.768 549.568 392.843 549.456 392.892C549.456 392.892 549.554 392.794 549.691 392.627C549.774 392.531 549.845 392.425 549.901 392.31C549.969 392.199 550.012 392.003 549.901 391.981C549.789 391.96 549.64 392.105 549.563 392.212C549.493 392.314 549.447 392.429 549.426 392.55C549.408 392.666 549.401 392.783 549.404 392.901Z" fill="#263238"/>
<path d="M558.125 392.123C558.125 392.123 557.894 392.123 557.531 392.161C557.056 392.224 556.61 392.422 556.244 392.73C555.878 393.038 555.607 393.445 555.465 393.902C555.349 394.253 555.345 394.483 555.324 394.483C555.317 394.43 555.317 394.375 555.324 394.321C555.338 394.177 555.363 394.033 555.401 393.893C555.536 393.417 555.81 392.991 556.188 392.67C556.566 392.351 557.033 392.154 557.526 392.106C557.668 392.09 557.812 392.09 557.954 392.106C558.091 392.101 558.125 392.114 558.125 392.123Z" fill="#263238"/>
<path d="M557.197 388.781C557.266 389.33 557.305 389.883 557.313 390.436C557.348 390.989 557.348 391.543 557.313 392.096C557.203 390.995 557.159 389.888 557.18 388.781H557.197Z" fill="#263238"/>
<path d="M554.275 393.766C553.893 393.868 553.499 393.919 553.104 393.916C552.708 393.947 552.31 393.927 551.919 393.856C551.919 393.826 552.449 393.856 553.099 393.817C553.749 393.779 554.271 393.74 554.275 393.766Z" fill="#263238"/>
<path d="M555.858 393.722C555.879 393.722 555.819 393.833 555.768 393.958C555.717 394.082 555.691 394.184 555.666 394.184C555.64 394.184 555.618 394.06 555.666 393.919C555.713 393.778 555.841 393.701 555.858 393.722Z" fill="#263238"/>
<path d="M556.436 392.964C556.436 392.964 556.406 393.071 556.325 393.157C556.243 393.242 556.162 393.298 556.141 393.281C556.119 393.264 556.171 393.178 556.252 393.088C556.333 392.998 556.414 392.947 556.436 392.964Z" fill="#263238"/>
<path d="M557.278 392.604C557.278 392.629 557.166 392.629 557.047 392.676C556.927 392.723 556.846 392.788 556.824 392.77C556.803 392.753 556.867 392.638 557.013 392.587C557.158 392.535 557.286 392.578 557.278 392.604Z" fill="#263238"/>
<path d="M557.881 392.427C557.881 392.453 557.847 392.496 557.779 392.526C557.71 392.555 557.65 392.555 557.642 392.526C557.633 392.496 557.676 392.457 557.744 392.427C557.813 392.397 557.873 392.401 557.881 392.427Z" fill="#263238"/>
<path d="M530.574 369.662L532.43 365.812L539.726 369.272L537.049 374.982L536.583 374.794C534.517 373.938 526.139 370.367 524.984 369.319C523.714 368.135 530.574 369.662 530.574 369.662Z" fill="#7E57C2"/>
<g opacity="0.5">
<path d="M534.444 373.653C534.843 373.089 535.438 372.693 536.112 372.541C536.777 372.385 537.476 372.484 538.071 372.819L537.105 374.859L534.444 373.653Z" fill="white"/>
</g>
<g opacity="0.4">
<path d="M527.169 369.031C527.169 369.031 524.701 368.629 524.8 369.116C524.898 369.604 533.234 373.543 537.061 374.963L537.13 374.792L527.37 370.275C527.37 370.275 527.584 369.232 527.169 369.031Z" fill="white"/>
</g>
<path d="M537.245 374.846L537.134 374.795L536.762 374.65L535.41 374.077C534.273 373.589 532.707 372.888 530.992 372.084C529.277 371.28 527.75 370.505 526.647 369.945L525.364 369.265L525.013 369.073L524.894 369C524.938 369.013 524.981 369.032 525.022 369.056L525.381 369.231L526.694 369.885C527.806 370.437 529.341 371.194 531.052 372.002C532.763 372.811 534.324 373.516 535.453 374.021L536.796 374.62L537.159 374.787L537.245 374.846Z" fill="#263238"/>
<path d="M527.319 370.393C527.362 370.146 527.379 369.895 527.37 369.645C527.328 369.396 527.256 369.154 527.156 368.922C527.346 369.111 527.457 369.364 527.468 369.632C527.513 369.895 527.46 370.166 527.319 370.393Z" fill="#263238"/>
<path d="M529.987 370.322C529.926 370.202 529.892 370.069 529.889 369.933C529.859 369.801 529.859 369.664 529.889 369.531C529.919 369.531 529.962 369.702 529.987 369.92C530.013 370.139 530.017 370.318 529.987 370.322Z" fill="#263238"/>
<path d="M530.719 370.289C530.693 370.289 530.616 370.17 530.544 369.999C530.471 369.827 530.432 369.678 530.458 369.665C530.484 369.652 530.561 369.785 530.633 369.96C530.706 370.135 530.753 370.281 530.719 370.289Z" fill="#263238"/>
<path d="M531.429 369.771C531.279 369.762 531.132 369.718 531.002 369.642C530.792 369.544 530.629 369.446 530.638 369.42C530.647 369.394 530.83 369.454 531.044 369.553C531.186 369.598 531.317 369.673 531.429 369.771Z" fill="#263238"/>
<path d="M531.784 369.35C531.619 369.374 531.45 369.347 531.301 369.273C531.044 369.175 530.873 369.029 530.873 369.008C531.021 369.052 531.165 369.11 531.301 369.183C531.466 369.224 531.628 369.28 531.784 369.35Z" fill="#263238"/>
<path d="M530.044 369.572C529.875 369.522 529.716 369.446 529.573 369.345C529.421 369.243 529.277 369.127 529.145 368.999C529.06 368.923 528.983 368.838 528.914 368.746C528.874 368.688 528.857 368.616 528.867 368.545C528.873 368.508 528.889 368.472 528.914 368.444C528.939 368.415 528.972 368.394 529.009 368.383C529.23 368.379 529.445 368.453 529.617 368.591C529.79 368.729 529.909 368.923 529.954 369.14C529.983 369.267 529.983 369.398 529.954 369.525C529.954 369.61 529.915 369.657 529.907 369.657C529.929 369.489 529.922 369.318 529.885 369.153C529.835 368.981 529.739 368.825 529.607 368.704C529.531 368.63 529.44 368.572 529.341 368.533C529.242 368.494 529.136 368.475 529.03 368.477C528.927 368.498 528.914 368.601 528.974 368.687C529.037 368.773 529.109 368.854 529.188 368.926C529.321 369.055 529.464 369.174 529.616 369.281C529.864 369.469 530.048 369.555 530.044 369.572Z" fill="#263238"/>
<path d="M529.91 369.535C529.899 369.41 529.934 369.285 530.009 369.184C530.082 369.068 530.181 368.971 530.299 368.902C530.372 368.85 530.456 368.818 530.544 368.808C530.633 368.798 530.722 368.811 530.804 368.846C530.846 368.878 530.875 368.926 530.883 368.979C530.891 369.031 530.878 369.085 530.847 369.128C530.8 369.199 530.739 369.259 530.667 369.304C530.556 369.377 530.437 369.438 530.312 369.483C530.2 369.534 530.076 369.554 529.953 369.543C529.953 369.543 530.086 369.505 530.287 369.415C530.403 369.365 530.514 369.302 530.616 369.227C530.727 369.158 530.855 369.004 530.749 368.927C530.681 368.904 530.61 368.897 530.539 368.906C530.469 368.914 530.401 368.94 530.342 368.979C530.234 369.039 530.141 369.122 530.069 369.223C530.005 369.321 529.952 369.425 529.91 369.535Z" fill="#263238"/>
<path d="M538.04 372.784C538.04 372.784 537.839 372.664 537.493 372.544C537.04 372.392 536.553 372.369 536.087 372.479C535.622 372.588 535.196 372.826 534.859 373.164C534.602 373.425 534.491 373.63 534.474 373.622C534.488 373.568 534.513 373.517 534.546 373.472C534.622 373.345 534.711 373.226 534.812 373.117C535.144 372.749 535.581 372.492 536.064 372.378C536.547 372.264 537.052 372.3 537.514 372.48C537.654 372.532 537.788 372.599 537.912 372.681C537.989 372.741 538.045 372.779 538.04 372.784Z" fill="#263238"/>
<path d="M538.721 369.383C538.537 369.904 538.322 370.414 538.075 370.91C537.861 371.42 537.616 371.918 537.34 372.398C537.526 371.877 537.741 371.367 537.986 370.871C538.2 370.36 538.445 369.863 538.721 369.383Z" fill="#263238"/>
<path d="M533.862 372.505C533.474 372.424 533.098 372.29 532.746 372.108C532.38 371.956 532.035 371.757 531.72 371.517C531.72 371.492 532.199 371.748 532.789 372.018C533.379 372.287 533.871 372.48 533.862 372.505Z" fill="#263238"/>
<path d="M535.295 373.182C535.295 373.207 535.205 373.263 535.107 373.353C535.009 373.443 534.936 373.52 534.91 373.507C534.885 373.494 534.91 373.374 535.043 373.276C535.175 373.178 535.287 373.156 535.295 373.182Z" fill="#263238"/>
<path d="M536.151 372.764C536.151 372.79 536.078 372.841 535.967 372.884C535.856 372.927 535.757 372.936 535.744 372.91C535.732 372.884 535.821 372.833 535.933 372.79C536.044 372.747 536.142 372.739 536.151 372.764Z" fill="#263238"/>
<path d="M537.066 372.825C537.066 372.846 536.955 372.799 536.831 372.786C536.707 372.774 536.6 372.786 536.587 372.786C536.574 372.786 536.685 372.688 536.839 372.705C536.993 372.722 537.087 372.803 537.066 372.825Z" fill="#263238"/>
<path d="M537.686 372.939C537.686 372.969 537.622 372.986 537.549 372.982C537.476 372.978 537.425 372.948 537.425 372.922C537.425 372.896 537.485 372.879 537.557 372.883C537.63 372.888 537.686 372.913 537.686 372.939Z" fill="#263238"/>
<path d="M583.923 312.826C582.368 312.956 580.808 313.003 579.248 312.967C577.688 313.014 576.126 312.978 574.569 312.86C577.684 312.684 580.806 312.672 583.923 312.826Z" fill="#263238"/>
<path d="M583.799 313.278L582.088 304.669C580.805 297.625 570.947 297.137 570.947 297.137L563.197 297.013C563.197 297.013 557.449 296.239 553.904 300.238C550.234 304.378 545.727 309.266 545.727 309.266L549.148 317.927L557.304 311.2C556.621 312.393 556.245 313.738 556.209 315.113C556.209 317.409 558.604 318.466 558.604 318.466L559.335 325.45L556.915 336.732L582.229 335.718C581.804 331.936 580.528 328.3 578.495 325.082L578.966 313.282L583.799 313.278Z" fill="#7E57C2"/>
<path d="M556.41 313.52C556.477 313.124 556.579 312.735 556.714 312.357C556.821 312.002 556.953 311.578 557.116 311.112C557.197 310.881 557.287 310.637 557.39 310.389C557.445 310.252 557.518 310.137 557.552 310.026C557.59 309.906 557.606 309.78 557.599 309.654C557.578 309.387 557.538 309.123 557.479 308.863C557.428 308.6 557.381 308.348 557.338 308.106C557.257 307.644 557.184 307.216 557.116 306.823C557.024 306.43 556.975 306.028 556.97 305.625C557.117 306.001 557.223 306.39 557.287 306.788C557.372 307.177 557.462 307.605 557.565 308.071C557.611 308.314 557.662 308.566 557.719 308.828C557.785 309.109 557.828 309.396 557.847 309.684C557.855 309.837 557.834 309.991 557.787 310.137C557.736 310.291 557.663 310.406 557.616 310.518C557.509 310.761 557.419 310.997 557.33 311.228L556.902 312.446C556.779 312.822 556.614 313.182 556.41 313.52Z" fill="#263238"/>
<g opacity="0.2">
<path d="M573.227 305.961C573.543 310.764 573.727 315.186 573.821 319.993C574.462 319.97 575.086 319.775 575.626 319.429C575.874 317.376 574.343 311.136 573.227 305.961Z" fill="black"/>
</g>
<path d="M582.301 334.593C582.301 334.593 549.207 327.66 546 329.178C542.792 330.697 528.037 367.242 528.037 367.242L539.935 372.374L552.74 341.337C552.74 341.337 575.912 349.801 579.957 348.959C584.003 348.116 582.301 334.593 582.301 334.593Z" fill="#455A64"/>
<path d="M567.5 336.531C566.991 336.698 547.848 344.567 546.496 347.099C545.145 349.631 548.464 391.638 548.464 391.638H559.374L558.698 354.301L579.95 348.917L567.5 336.531Z" fill="#455A64"/>
<path d="M580.052 349.003C579.947 349.001 579.842 348.988 579.74 348.964L578.85 348.806C578.076 348.665 576.96 348.442 575.587 348.152C572.837 347.57 569.057 346.693 564.934 345.513C562.872 344.914 560.926 344.294 559.169 343.691C557.411 343.088 555.846 342.485 554.554 341.929C553.904 341.668 553.322 341.407 552.813 341.176C552.304 340.945 551.868 340.748 551.53 340.565L550.722 340.158C550.625 340.117 550.533 340.064 550.448 340C550.551 340.025 550.65 340.063 550.743 340.111L551.573 340.479C551.928 340.642 552.369 340.834 552.882 341.048C553.395 341.262 553.977 341.514 554.631 341.766C555.914 342.297 557.505 342.861 559.254 343.477C561.003 344.093 562.958 344.683 565.015 345.278C569.129 346.458 572.901 347.36 575.639 347.985L578.88 348.716L579.761 348.917C579.861 348.936 579.959 348.964 580.052 349.003Z" fill="#263238"/>
<path d="M546.514 356.749C546.459 356.544 546.426 356.333 546.415 356.121C546.364 355.667 546.304 355.09 546.231 354.41C546.159 353.73 546.082 352.802 545.996 351.844C545.85 350.794 545.85 349.729 545.996 348.679C546.212 347.617 546.771 346.655 547.587 345.942C548.236 345.364 548.97 344.891 549.764 344.539C550.435 344.231 550.996 344.039 551.381 343.902C551.578 343.823 551.783 343.764 551.992 343.727C551.992 343.769 551.137 344.069 549.854 344.697C549.09 345.062 548.384 345.538 547.758 346.109C546.989 346.797 546.463 347.715 546.257 348.726C546.125 349.755 546.125 350.798 546.257 351.827C546.325 352.776 546.39 353.644 546.441 354.393C546.492 355.141 546.518 355.676 546.544 356.104C546.558 356.319 546.548 356.536 546.514 356.749Z" fill="#263238"/>
<path d="M556.067 353.141C556.984 353.36 557.854 353.744 558.633 354.274C558.165 354.199 557.713 354.045 557.295 353.821C556.85 353.666 556.435 353.436 556.067 353.141Z" fill="#263238"/>
<path d="M557.026 351.992C557.331 352.387 557.617 352.796 557.881 353.22C558.373 353.878 558.873 354.336 558.826 354.391C558.38 354.131 557.991 353.785 557.679 353.373C557.368 352.961 557.142 352.492 557.013 351.992H557.026Z" fill="#263238"/>
<path d="M561.209 353.711C561.209 353.711 561.175 353.801 561.038 353.882C560.845 353.986 560.628 354.037 560.409 354.032C560.107 354.02 559.804 354.027 559.502 354.053C559.34 354.075 559.193 354.16 559.092 354.29C558.991 354.419 558.945 354.583 558.963 354.746C558.963 356.345 558.899 357.658 558.827 357.654C558.701 356.686 558.662 355.708 558.711 354.733C558.712 354.509 558.785 354.291 558.921 354.113C559.06 353.954 559.254 353.851 559.464 353.826C559.779 353.809 560.095 353.819 560.409 353.856C560.684 353.879 560.96 353.829 561.209 353.711Z" fill="#263238"/>
<path opacity="0.2" d="M558.595 328.948L581.155 330.761L580.193 328.238L558.817 327.93L558.595 328.948Z" fill="black"/>
<path d="M559.177 276.854C557.521 277.388 555.601 278.488 556.555 283.667C556.983 285.946 557.504 288.269 559.031 290.009C559.128 290.156 559.259 290.278 559.413 290.363C559.568 290.448 559.74 290.494 559.916 290.497C560.163 290.428 560.379 290.277 560.528 290.069C562.264 288.179 563.744 285.942 564.215 283.419C564.685 280.895 563.979 278.047 561.991 276.422" fill="#263238"/>
<path d="M562.368 299.327C562.312 296.945 562.214 294.392 562.214 294.392C562.214 294.392 558.587 293.934 558.429 290.235C558.271 286.535 558.236 280.052 558.236 280.052L565.314 274.812L570.284 281.655L570.408 299.19C570.412 299.721 570.311 300.247 570.111 300.738C569.91 301.229 569.615 301.676 569.241 302.052C568.868 302.429 568.423 302.728 567.933 302.932C567.444 303.135 566.918 303.24 566.388 303.24C565.34 303.241 564.333 302.832 563.582 302.101C562.831 301.37 562.396 300.375 562.368 299.327Z" fill="#FFB29D"/>
<path d="M562.196 294.394C563.915 294.348 565.583 293.801 566.995 292.82C566.995 292.82 565.866 295.515 562.256 295.301L562.196 294.394Z" fill="#EB9078"/>
<path d="M566.982 282.706C567.638 282.706 568.274 282.479 568.782 282.065C569.112 282.92 569.103 283.904 569.403 284.785C569.702 285.666 570.408 289.31 571.331 289.173C572.187 289.045 572.777 285.371 572.995 284.545C573.59 282.253 572.841 279.734 571.323 277.921C569.514 275.782 566.503 273.939 563.706 274.14C562.451 274.19 561.24 274.615 560.229 275.359C560.229 275.359 558.719 276.526 558.843 278.011C559.019 280.085 562.042 281.432 564.116 281.355L564.416 281.642C564.751 281.981 565.151 282.25 565.591 282.433C566.032 282.616 566.505 282.709 566.982 282.706Z" fill="#263238"/>
<path d="M558.197 282.024C558.713 281.6 559.077 281.018 559.232 280.369C559.38 279.722 559.461 279.061 559.472 278.397C559.472 278.205 559.45 277.969 559.266 277.909C559.082 277.85 558.937 278.046 558.839 278.209C558.19 279.438 557.96 280.845 558.184 282.216C558.223 282.178 558.06 282.319 558.099 282.28" fill="#263238"/>
<path d="M571.593 297.383C572.12 296.916 572.526 296.329 572.778 295.672C573.03 295.014 573.119 294.306 573.038 293.607C572.906 292.542 572.38 291.528 572.431 290.459C572.47 289.604 572.859 288.838 573.141 288.034C573.582 286.721 573.692 285.32 573.462 283.954C573.278 282.876 572.842 281.777 571.952 281.14C571.062 280.503 569.664 280.52 569.01 281.392L568.693 281.491C567.964 283.011 567.683 284.708 567.883 286.383C568.083 288.057 568.756 289.64 569.822 290.947C569.026 291.848 568.594 293.013 568.609 294.215C568.624 295.417 569.085 296.571 569.903 297.452C569.331 298.199 568.967 299.085 568.85 300.019C568.733 300.953 568.866 301.902 569.236 302.768L569.266 302.832C568.475 303.67 568.022 304.771 567.993 305.924C567.963 307.076 568.361 308.198 569.108 309.076C568.285 309.768 567.728 310.725 567.534 311.783C567.453 312.301 567.536 312.832 567.77 313.301C568.005 313.77 568.38 314.154 568.843 314.4C568.452 314.733 568.154 315.161 567.977 315.642C567.799 316.124 567.748 316.643 567.829 317.149C567.91 317.656 568.119 318.133 568.438 318.536C568.756 318.938 569.172 319.252 569.647 319.447C570.11 318.979 570.622 318.562 571.174 318.203C570.873 318.058 570.628 317.821 570.472 317.527C570.816 317.777 571.232 317.907 571.657 317.899L571.144 315.572C571.088 315.147 570.942 314.739 570.716 314.375C570.698 314.35 570.678 314.327 570.656 314.306C571.259 314.003 571.732 313.491 571.986 312.865C572.448 311.672 572.127 310.299 571.512 309.174C572.162 307.836 572.795 306.429 572.795 304.94C572.801 304.262 572.655 303.591 572.367 302.977C572.954 302.088 573.273 301.049 573.286 299.983C573.285 299.433 573.124 298.895 572.823 298.433C572.523 297.972 572.096 297.607 571.593 297.383Z" fill="#263238"/>
<path d="M571.122 309.051C570.995 309.182 570.839 309.283 570.668 309.346C570.496 309.41 570.312 309.435 570.13 309.418C569.948 309.439 569.764 309.419 569.59 309.361C569.416 309.303 569.258 309.207 569.125 309.081C569.155 309.021 569.578 309.209 570.126 309.196C570.673 309.183 571.092 308.991 571.122 309.051Z" fill="#455A64"/>
<path d="M572.085 303.75C571.275 304.239 570.553 304.859 569.946 305.585C569.404 306.354 568.988 307.204 568.714 308.104C568.704 307.82 568.747 307.537 568.843 307.27C569.235 305.941 570.109 304.806 571.293 304.088C571.53 303.92 571.8 303.805 572.085 303.75Z" fill="#455A64"/>
<path d="M571.657 303.028C571.379 303.25 571.035 303.371 570.679 303.371C570.324 303.371 569.979 303.25 569.702 303.028C569.732 302.968 570.13 303.152 570.682 303.147C571.233 303.143 571.627 302.972 571.657 303.028Z" fill="#455A64"/>
<path d="M572.324 302.304C572.289 301.509 572.088 300.729 571.734 300.016C571.379 299.303 570.88 298.672 570.267 298.164C570.495 298.243 570.703 298.373 570.874 298.545C571.315 298.927 571.675 299.393 571.934 299.916C572.193 300.439 572.346 301.008 572.384 301.59C572.42 301.829 572.4 302.074 572.324 302.304Z" fill="#455A64"/>
<path d="M571.777 296.779C571.828 296.809 571.601 297.164 571.14 297.343C570.678 297.523 570.284 297.42 570.284 297.343C570.284 297.266 570.656 297.279 571.058 297.121C571.46 296.963 571.721 296.736 571.777 296.779Z" fill="#455A64"/>
<path d="M570.446 297.033C570.212 296.825 570.048 296.55 569.976 296.246C569.763 295.518 569.797 294.74 570.074 294.034C570.355 293.346 570.764 292.718 571.28 292.183C571.472 291.944 571.699 291.735 571.952 291.562C571.793 291.822 571.609 292.064 571.4 292.285C570.934 292.833 570.557 293.451 570.284 294.116C570.025 294.779 569.97 295.504 570.126 296.199C570.216 296.483 570.323 296.761 570.446 297.033Z" fill="#455A64"/>
<path d="M571.981 291.038C571.647 291.181 571.277 291.218 570.922 291.145C570.566 291.073 570.24 290.894 569.988 290.632C570.027 290.581 570.416 290.82 570.968 290.927C571.519 291.034 571.968 290.966 571.981 291.038Z" fill="#455A64"/>
<path d="M573.692 285.162C573.372 285.253 573.037 285.276 572.708 285.231C571.904 285.169 571.128 284.903 570.455 284.459C569.781 284.014 569.232 283.406 568.859 282.69C568.685 282.406 568.574 282.088 568.534 281.758C568.568 281.758 568.688 282.104 568.996 282.613C569.392 283.281 569.934 283.85 570.583 284.277C571.231 284.704 571.968 284.977 572.738 285.077C573.316 285.158 573.692 285.124 573.692 285.162Z" fill="#455A64"/>
<path d="M573.363 287.363C573.363 287.363 573.282 287.461 573.081 287.547C572.786 287.66 572.467 287.69 572.157 287.633C571.154 287.396 570.265 286.819 569.642 285.999C568.994 285.21 568.574 284.259 568.427 283.249C568.382 282.946 568.368 282.639 568.385 282.334C568.384 282.22 568.401 282.108 568.436 282C568.479 282 568.436 282.479 568.581 283.223C568.769 284.19 569.194 285.095 569.817 285.858C570.412 286.637 571.241 287.205 572.182 287.479C572.578 287.56 572.99 287.52 573.363 287.363Z" fill="#455A64"/>
<path d="M572.572 280.591C572.439 280.677 572.295 280.744 572.144 280.792C571.742 280.946 571.32 281.042 570.891 281.079C570.241 281.138 569.585 281.074 568.958 280.89C568.157 280.673 567.422 280.26 566.82 279.689L566.931 279.714C566.444 279.882 565.936 279.981 565.421 280.009C564.416 280.07 563.413 279.863 562.513 279.411C561.783 279.036 561.144 278.504 560.644 277.854C560.304 277.422 560.034 276.94 559.844 276.425C559.792 276.286 559.747 276.143 559.712 275.998C559.712 275.899 559.682 275.848 559.712 275.844C559.972 276.53 560.333 277.173 560.785 277.751C561.34 278.437 562.052 278.979 562.86 279.332C563.668 279.686 564.549 279.84 565.43 279.783C565.923 279.755 566.411 279.662 566.879 279.505H566.944L566.991 279.547C567.561 280.094 568.253 280.497 569.009 280.724C569.614 280.911 570.247 280.989 570.878 280.955C571.455 280.899 572.023 280.777 572.572 280.591Z" fill="#455A64"/>
<path d="M570.921 277.612C570.782 277.656 570.639 277.68 570.493 277.685C570.207 277.719 569.792 277.757 569.279 277.805L567.478 277.95C566.736 278.021 565.988 278.021 565.246 277.95C563.886 277.794 562.594 277.272 561.508 276.44C561.183 276.191 560.881 275.914 560.605 275.611C560.499 275.504 560.408 275.383 560.336 275.251C560.366 275.221 560.764 275.722 561.619 276.316C562.704 277.088 563.966 277.573 565.288 277.728C566.017 277.79 566.75 277.79 567.478 277.728L569.287 277.629C569.8 277.604 570.22 277.586 570.506 277.582C570.645 277.576 570.784 277.586 570.921 277.612Z" fill="#455A64"/>
<path d="M571.113 313.883C570.978 314.035 570.811 314.156 570.624 314.237C570.437 314.317 570.235 314.356 570.031 314.349C569.83 314.382 569.624 314.369 569.429 314.311C569.233 314.253 569.053 314.152 568.902 314.015C569.271 314.079 569.644 314.116 570.019 314.127C570.389 314.07 570.754 313.989 571.113 313.883Z" fill="#455A64"/>
<path d="M570.254 314.538C570.256 314.313 570.276 314.088 570.314 313.866C570.347 313.336 570.288 312.803 570.138 312.292C569.979 311.785 569.733 311.309 569.411 310.885C569.159 310.56 568.983 310.389 568.983 310.359C569.197 310.455 569.383 310.602 569.527 310.787C569.902 311.203 570.181 311.697 570.343 312.233C570.509 312.77 570.55 313.337 570.463 313.892C570.447 314.121 570.375 314.343 570.254 314.538Z" fill="#455A64"/>
<path d="M584.889 320.621C584.388 316.485 583.725 312.961 583.725 312.961H574.77C574.77 312.961 575.882 318.204 575.625 319.423C575.411 320.48 558.043 321.185 553.518 321.254C553.249 321.053 552.856 321.391 552.509 321.087C552.199 320.818 551.939 320.496 551.739 320.137C551.468 319.701 551.26 319.229 551.119 318.735C551.108 318.639 551.067 318.55 551.003 318.478C550.939 318.407 550.854 318.357 550.761 318.335C550.667 318.314 550.569 318.322 550.48 318.358C550.391 318.394 550.316 318.457 550.264 318.538C550.084 318.927 550.289 320.219 551.149 321.463C552.009 322.708 549.755 322.062 548.929 321.844C548.104 321.626 545.508 321.061 545.251 321.266C544.858 321.57 545.106 322.058 545.936 322.259C546.765 322.46 549.207 323.242 549.075 323.683C548.942 324.123 544.755 322.934 544.755 322.934C544.755 322.934 543.9 322.532 543.729 323.037C543.421 323.948 547.963 324.868 548.395 324.945C548.698 325 548.57 325.483 548.249 325.411C547.929 325.338 544.097 324.128 543.776 325.056C543.528 325.761 547.505 325.847 548.164 326.548C548.822 327.25 545.17 326.172 544.943 326.856C544.862 327.113 546.389 327.233 548.583 327.541C550.836 327.756 553.099 327.836 555.362 327.78C560.451 328.062 578.431 328.43 582.271 328.161C586.745 327.844 585.06 322.041 584.889 320.621Z" fill="#FFB29D"/>
<path d="M525.45 304.208L532.828 325.759H566.221L565.973 324.647L552.471 324.232L546.248 304.195L525.45 304.208Z" fill="#E0E0E0"/>
<path d="M540.247 314.333C540.47 315.214 540.089 316.078 539.392 316.261C538.695 316.445 537.968 315.881 537.75 314.978C537.532 314.076 537.904 313.234 538.605 313.05C539.306 312.866 540.029 313.447 540.247 314.333Z" fill="white"/>
<path d="M429.481 262.508H406.094V281.613H429.481V262.508Z" fill="#F5F5F5"/>
<path d="M426.003 267.008H423.271V278.745H426.003V267.008Z" fill="#FFC100"/>
<path d="M421.508 266.109H418.777V278.734H421.508V266.109Z" fill="#FFC100"/>
<path d="M417.153 267.68H414.422V278.74H417.153V267.68Z" fill="#FFC100"/>
<path opacity="0.3" d="M417.153 267.68H414.422V278.74H417.153V267.68Z" fill="white"/>
<path d="M412.732 269.406H410.001V278.741H412.732V269.406Z" fill="#FFC100"/>
<path d="M426.003 267.008H423.271V278.745H426.003V267.008Z" fill="#FFC100"/>
<path d="M428.078 278.784C428.078 278.831 423.587 278.872 418.046 278.872C412.505 278.872 408.018 278.831 408.018 278.784C408.018 278.736 412.508 278.695 418.046 278.695C423.584 278.695 428.078 278.733 428.078 278.784Z" fill="#263238"/>
<path d="M426.936 267.729C426.936 267.749 426.621 267.688 426.062 267.729C425.27 267.779 424.498 268.024 423.808 268.447C423.331 268.737 422.904 269.113 422.546 269.559C422.155 270.032 421.805 270.604 421.389 271.175C420.973 271.803 420.418 272.308 419.774 272.645C419.069 272.958 418.313 273.118 417.551 273.118C416.775 273.148 416.021 273.118 415.299 273.142C414.605 273.168 413.915 273.269 413.24 273.444C412.632 273.606 412.05 273.866 411.515 274.217C411.051 274.526 410.644 274.923 410.313 275.39C409.824 276.065 409.54 276.888 409.503 277.744C409.508 278.059 409.538 278.372 409.594 278.68C409.488 278.381 409.435 278.064 409.437 277.744C409.451 276.865 409.726 276.014 410.222 275.315C410.554 274.829 410.968 274.415 411.442 274.094C411.986 273.728 412.58 273.456 413.202 273.288C413.887 273.104 414.588 272.997 415.293 272.968C416.024 272.931 416.778 272.968 417.544 272.941C418.286 272.942 419.021 272.789 419.708 272.488C420.333 272.164 420.875 271.678 421.285 271.073C421.698 270.515 422.051 269.94 422.455 269.461C422.826 269.009 423.267 268.629 423.757 268.338C424.465 267.916 425.257 267.683 426.066 267.657C426.284 267.652 426.502 267.665 426.718 267.695C426.792 267.699 426.865 267.71 426.936 267.729Z" fill="#263238"/>
<path d="M406.324 270.57C406.276 270.577 406.227 270.577 406.179 270.57H405.753H404.142L398.377 270.468H398.308V270.393C398.308 267.75 398.308 264.61 398.308 261.259C398.308 256.373 398.327 251.951 398.333 248.733C398.333 247.14 398.352 245.848 398.358 244.936C398.358 244.5 398.358 244.153 398.374 243.915V243.647C398.369 243.616 398.369 243.585 398.374 243.555C398.378 243.585 398.378 243.616 398.374 243.647V243.915C398.374 244.164 398.374 244.511 398.374 244.936C398.374 245.848 398.39 247.14 398.402 248.733C398.402 251.951 398.402 256.373 398.424 261.259C398.424 264.613 398.424 267.75 398.424 270.393L398.355 270.318L404.12 270.482L405.731 270.539L406.154 270.56C406.211 270.558 406.268 270.561 406.324 270.57Z" fill="#263238"/>
<path d="M440.549 256.049C440.482 256.06 440.413 256.066 440.344 256.066H439.755L437.582 256.094L430.414 256.121H426.264L426.339 256.043C426.339 257.934 426.317 259.54 426.308 260.7C426.308 261.251 426.292 261.697 426.286 262.027C426.286 262.166 426.286 262.282 426.286 262.367C426.299 262.37 426.311 262.379 426.319 262.391C426.327 262.403 426.331 262.418 426.329 262.433C426.328 262.448 426.321 262.462 426.311 262.472C426.3 262.482 426.287 262.488 426.273 262.488C426.259 262.488 426.246 262.482 426.235 262.472C426.225 262.462 426.218 262.448 426.217 262.433C426.215 262.418 426.219 262.403 426.227 262.391C426.235 262.379 426.247 262.37 426.26 262.367C426.26 262.272 426.26 262.156 426.26 262.027C426.26 261.687 426.26 261.251 426.241 260.7C426.241 259.54 426.223 257.934 426.21 256.043V255.961H426.286H430.436L437.604 255.985L439.777 256.015H440.366C440.428 256.02 440.49 256.031 440.549 256.049Z" fill="#263238"/>
<path d="M406.094 277.025C406.056 277.03 406.018 277.03 405.98 277.025H405.646H404.384L399.689 277.008L384.198 276.882L371.877 276.749H371.833L371.814 276.705L369.064 269.806L368.304 267.887L368.109 267.38C368.085 267.323 368.066 267.264 368.052 267.203C368.082 267.256 368.108 267.312 368.131 267.37C368.181 267.492 368.25 267.659 368.342 267.87C368.525 268.319 368.79 268.962 369.127 269.782C369.802 271.442 370.761 273.81 371.918 276.664L371.855 276.62L384.179 276.722L399.667 276.899L404.362 276.974L405.64 277.004H405.971C406.012 277.006 406.054 277.013 406.094 277.025Z" fill="#263238"/>
<path d="M374.135 276.767C374.135 277.074 374.051 277.374 373.892 277.629C373.734 277.884 373.508 278.082 373.245 278.199C372.982 278.315 372.692 278.345 372.414 278.283C372.135 278.222 371.879 278.072 371.679 277.854C371.479 277.635 371.344 277.358 371.291 277.056C371.238 276.754 371.269 276.443 371.38 276.16C371.492 275.878 371.679 275.637 371.917 275.47C372.156 275.302 372.435 275.215 372.719 275.219C373.097 275.224 373.457 275.39 373.722 275.679C373.987 275.969 374.135 276.36 374.135 276.767Z" fill="#E0E0E0"/>
<path d="M369.08 267.863H360.448C359.868 267.863 359.311 267.614 358.901 267.171C358.49 266.728 358.26 266.128 358.26 265.502C358.26 264.875 358.49 264.275 358.901 263.832C359.311 263.389 359.868 263.141 360.448 263.141H369.08C369.66 263.141 370.217 263.389 370.627 263.832C371.038 264.275 371.268 264.875 371.268 265.502C371.268 266.128 371.038 266.728 370.627 267.171C370.217 267.614 369.66 267.863 369.08 267.863Z" fill="#455A64"/>
<path d="M383.946 241.797H363.842V256.198H383.946V241.797Z" fill="#F5F5F5"/>
<path d="M388.184 246.133H374.835V251.852H388.184V246.133Z" fill="#FFC100"/>
<path d="M372.369 246.38C371.331 246.47 370.289 246.5 369.247 246.469C368.205 246.499 367.162 246.47 366.122 246.38C367.162 246.293 368.205 246.263 369.247 246.292C370.289 246.263 371.331 246.293 372.369 246.38Z" fill="#E0E0E0"/>
<path d="M372.369 247.423C371.331 247.515 370.289 247.545 369.247 247.514C368.205 247.545 367.161 247.514 366.122 247.423C367.163 247.341 368.207 247.317 369.25 247.351C370.291 247.317 371.332 247.341 372.369 247.423Z" fill="#E0E0E0"/>
<path d="M372.369 248.475C371.331 248.563 370.289 248.592 369.247 248.564C368.205 248.592 367.162 248.563 366.122 248.475C367.162 248.382 368.207 248.349 369.25 248.377C370.291 248.349 371.332 248.382 372.369 248.475Z" fill="#E0E0E0"/>
<path d="M372.369 249.514C371.331 249.602 370.289 249.631 369.247 249.603C368.205 249.631 367.162 249.602 366.122 249.514C367.162 249.425 368.205 249.395 369.247 249.426C370.289 249.395 371.331 249.425 372.369 249.514Z" fill="#E0E0E0"/>
<path d="M372.369 250.561C371.331 250.649 370.289 250.678 369.247 250.65C368.205 250.678 367.162 250.649 366.122 250.561C367.162 250.472 368.205 250.442 369.247 250.473C370.289 250.442 371.331 250.471 372.369 250.561Z" fill="#E0E0E0"/>
<path d="M369.793 251.608C369.185 251.695 368.57 251.725 367.957 251.696C367.344 251.725 366.73 251.695 366.122 251.608C366.73 251.519 367.344 251.489 367.957 251.519C368.57 251.489 369.185 251.519 369.793 251.608Z" fill="#E0E0E0"/>
<path d="M383.785 243.909C383.785 243.96 379.32 243.997 373.813 243.997C368.307 243.997 363.842 243.96 363.842 243.909C363.842 243.858 368.304 243.82 373.813 243.82C379.323 243.82 383.785 243.861 383.785 243.909Z" fill="#E0E0E0"/>
<path d="M419.929 257.058C419.926 257.006 419.926 256.954 419.929 256.902C419.929 256.789 419.929 256.647 419.929 256.463C419.929 256.068 419.929 255.514 419.91 254.816C419.91 253.394 419.891 251.39 419.875 248.992L419.944 249.07H412.467L412.549 248.982V251.152C412.549 251.863 412.549 252.561 412.549 253.238C412.549 254.599 412.549 255.867 412.549 257.041L412.477 256.966L417.876 257.004L419.402 257.024H419.809H419.954C419.911 257.029 419.867 257.029 419.824 257.024H419.43L417.92 257.045L412.477 257.085H412.407V257.007C412.407 255.833 412.407 254.558 412.407 253.204C412.407 252.523 412.407 251.843 412.407 251.118V248.948L412.489 248.859H419.966H420.039V248.934C420.023 251.353 420.011 253.374 420.001 254.806C420.001 255.486 420.001 256.044 419.982 256.436C419.982 256.613 419.982 256.752 419.982 256.861C419.974 256.929 419.956 256.996 419.929 257.058Z" fill="#263238"/>
<path d="M425.198 245.539H421.458V249.574H425.198V245.539Z" fill="#E0E0E0"/>
<path d="M450.392 258.409H441.761C441.18 258.409 440.624 258.161 440.213 257.718C439.803 257.275 439.572 256.675 439.572 256.048C439.572 255.738 439.628 255.431 439.738 255.144C439.848 254.858 440.009 254.597 440.212 254.378C440.416 254.159 440.657 253.985 440.923 253.866C441.189 253.748 441.473 253.687 441.761 253.688H450.392C450.973 253.688 451.529 253.936 451.94 254.379C452.35 254.822 452.581 255.422 452.581 256.048C452.581 256.675 452.35 257.275 451.94 257.718C451.529 258.161 450.973 258.409 450.392 258.409Z" fill="#455A64"/>
<path d="M426.223 257.627C427.015 257.627 427.658 256.934 427.658 256.079C427.658 255.224 427.015 254.531 426.223 254.531C425.431 254.531 424.788 255.224 424.788 256.079C424.788 256.934 425.431 257.627 426.223 257.627Z" fill="#E0E0E0"/>
<path d="M398.534 271.729C399.327 271.729 399.969 271.036 399.969 270.181C399.969 269.326 399.327 268.633 398.534 268.633C397.742 268.633 397.1 269.326 397.1 270.181C397.1 271.036 397.742 271.729 398.534 271.729Z" fill="#E0E0E0"/>
<path d="M402.694 241.547H394.063C392.854 241.547 391.874 242.604 391.874 243.908C391.874 245.212 392.854 246.269 394.063 246.269H402.694C403.903 246.269 404.883 245.212 404.883 243.908C404.883 242.604 403.903 241.547 402.694 241.547Z" fill="#455A64"/>
<path d="M357.391 392.186V387.654L349.275 387.602L349.205 394.379L349.71 394.414C351.951 394.559 361.115 394.853 362.607 394.375C364.287 393.857 357.391 392.186 357.391 392.186Z" fill="#FF725E"/>
<path d="M380.957 257.039L381.032 255.666C381.166 254.906 381.223 254.135 381.203 253.363C381.202 252.98 381.134 252.6 381.001 252.24C380.856 251.784 380.65 251.35 380.387 250.95C380.322 250.884 380.279 250.799 380.265 250.707C380.251 250.615 380.266 250.521 380.309 250.439C380.352 250.356 380.42 250.289 380.504 250.248C380.587 250.207 380.682 250.193 380.773 250.209C381.159 250.31 381.949 251.227 382.309 252.595C382.668 253.964 383.59 251.937 383.936 251.205C384.283 250.472 385.476 248.257 385.783 248.187C386.222 248.081 386.437 248.551 386.068 249.275C385.7 249.998 384.752 252.244 385.156 252.411C385.442 252.335 385.741 252.322 386.033 252.372C386.079 252.382 386.121 252.406 386.153 252.44C386.185 252.475 386.206 252.518 386.213 252.565C386.23 252.78 386.273 252.992 386.34 253.196C386.34 253.196 386.884 253.021 387.02 253.253C387.121 253.495 387.182 253.751 387.2 254.012C387.2 254.012 387.612 253.832 387.832 253.973C388.301 254.28 387.792 254.925 387.792 254.925C386.674 256.535 385.453 258.072 384.138 259.527L380.949 256.96" fill="#FFBE9D"/>
<path d="M341.936 256.944L341.884 274.443L349.372 274.79L349.587 270.534C349.587 270.534 352.254 271.065 352.943 268.587C353.382 267.007 353.272 254.781 353.272 254.781L341.936 256.944Z" fill="#FFBE9D"/>
<path d="M352.881 252.082C350.596 252.819 350.047 253.069 349.021 253.148C347.994 253.227 341.046 253.236 340.409 257.154C340.324 256.969 340.258 256.777 340.212 256.579C340.161 256.195 340.133 255.808 340.129 255.421C340.019 255.6 339.949 255.802 339.926 256.011C339.902 256.22 339.925 256.432 339.993 256.632C340.01 256.717 340.035 256.801 340.067 256.882C340.019 256.838 339.975 256.789 339.922 256.746C339.67 256.522 339.37 256.36 339.045 256.272C338.795 256.21 338.633 256.224 338.606 256.272C339.015 256.448 339.402 256.67 339.76 256.934C339.993 257.136 340.193 257.373 340.352 257.636C340.352 257.636 340.352 257.671 340.352 257.689C340.352 257.706 338.856 257.031 339.251 259.742C339.646 262.453 341.414 264.756 341.633 269.195C341.633 269.195 347.832 269.932 348.937 267.55L349.863 264.817C349.863 264.817 348.372 264.572 348.547 263.374C348.788 261.711 350.056 261.672 351.004 262.409L352.092 259.496C352.092 259.496 354.847 257.689 355.004 256.535C355.162 255.381 355.145 251.341 352.881 252.082Z" fill="#263238"/>
<path d="M321.169 388.805L320.072 393.7L327.648 394.639L327.92 389.787L321.169 388.805Z" fill="#FF725E"/>
<path d="M332.408 311.852L318.37 390.674L330.381 391.354C330.381 391.354 343.138 323.411 345.011 323.244C345.797 323.17 346.112 390.802 346.74 390.674C347.367 390.547 359.72 390.894 359.72 390.894C359.72 390.894 358.049 310.852 358.08 310.852L332.408 311.852Z" fill="#263238"/>
<path d="M350.153 321.584C350.153 321.646 348.083 322.142 345.503 322.69C342.924 323.238 340.818 323.633 340.805 323.567C340.792 323.502 342.875 323.01 345.455 322.462C348.034 321.913 350.14 321.523 350.153 321.584Z" fill="#455A64"/>
<path d="M331.272 386.725C331.272 386.791 328.557 386.755 325.21 386.655C321.862 386.554 319.151 386.413 319.151 386.352C319.151 386.29 321.867 386.321 325.214 386.422C328.561 386.523 331.272 386.655 331.272 386.725Z" fill="#455A64"/>
<path d="M359.642 386.733C359.642 386.795 356.707 386.759 353.096 386.65C349.486 386.54 346.556 386.404 346.556 386.343C346.556 386.281 349.486 386.316 353.101 386.422C356.716 386.527 359.642 386.654 359.642 386.733Z" fill="#455A64"/>
<path d="M338.404 323.773C338.466 323.773 335.496 337.846 331.767 355.174C328.038 372.502 324.968 386.545 324.906 386.532C324.845 386.518 327.815 372.463 331.543 355.126C335.272 337.789 338.339 323.76 338.404 323.773Z" fill="#455A64"/>
<path d="M353.148 386.542C353.143 386.488 353.143 386.434 353.148 386.38C353.148 386.261 353.148 386.103 353.122 385.902C353.122 385.463 353.078 384.853 353.043 384.064C352.977 382.471 352.903 380.159 352.819 377.303C352.653 371.601 352.486 363.704 352.446 354.992C352.407 346.28 352.49 338.388 352.604 332.676C352.657 329.82 352.714 327.513 352.767 325.916C352.793 325.126 352.811 324.512 352.828 324.078C352.828 323.876 352.828 323.718 352.828 323.6C352.822 323.546 352.822 323.491 352.828 323.438C352.835 323.491 352.835 323.546 352.828 323.6V324.078C352.828 324.517 352.828 325.126 352.828 325.916C352.806 327.526 352.775 329.834 352.736 332.681C352.666 338.383 352.604 346.28 352.648 354.992C352.692 363.704 352.828 371.592 352.951 377.303C353.017 380.146 353.069 382.454 353.109 384.064C353.109 384.849 353.135 385.467 353.144 385.902C353.144 386.103 353.144 386.261 353.144 386.38C353.152 386.434 353.154 386.488 353.148 386.542Z" fill="#455A64"/>
<path d="M379.698 256.641C379.698 256.641 370.398 270.678 369.608 271.455C368.819 272.231 354.254 273.776 354.254 273.776C349.78 272.767 335.321 273.1 332.592 275.092C330.228 276.408 327.359 279.478 325.88 286.73C323.358 299.136 320.836 303.707 325.88 305.44C327.897 306.128 329.976 306.618 332.088 306.905L331.947 312.52L358.093 310.893L356.777 296.951C356.619 293.034 356.544 288.954 356.448 285.339C358.084 284.721 373.289 278.965 374.333 278.816C375.377 278.667 385.392 260.247 385.392 260.247C385.691 258.058 379.698 256.641 379.698 256.641Z" fill="#FF725E"/>
<path d="M332.807 282.031C332.868 282.031 332.728 288.866 332.495 297.289C332.263 305.711 332.017 312.542 331.951 312.542C331.886 312.542 332.03 305.707 332.267 297.284C332.504 288.862 332.745 282.031 332.807 282.031Z" fill="#263238"/>
<path d="M384.871 261.373C384.562 261.225 384.268 261.047 383.993 260.842C383.458 260.504 382.717 260.048 381.866 259.592C381.015 259.135 380.225 258.771 379.646 258.517C379.322 258.401 379.011 258.254 378.716 258.078C379.057 258.134 379.39 258.232 379.707 258.368C381.268 258.95 382.744 259.739 384.094 260.715C384.379 260.901 384.64 261.122 384.871 261.373Z" fill="#263238"/>
<path d="M358.098 310.914C358.098 310.98 352.25 311.392 345.034 311.84C337.817 312.287 331.957 312.603 331.952 312.542C331.948 312.48 337.8 312.063 345.021 311.612C352.241 311.16 358.093 310.853 358.098 310.914Z" fill="#263238"/>
<path d="M349.494 273.247C348.228 273.372 346.955 273.42 345.682 273.391C344.411 273.439 343.138 273.411 341.87 273.308C343.137 273.183 344.41 273.134 345.682 273.163C346.954 273.116 348.226 273.143 349.494 273.247Z" fill="#263238"/>
<rect x="345.3" y="340.367" width="210.6" height="4.86" fill="#7DC3FF"/>
<path d="M345.3 345.227H555.9V345.227C555.9 347.016 554.449 348.467 552.66 348.467H348.54C346.75 348.467 345.3 347.016 345.3 345.227V345.227Z" fill="#4081E7"/>
<path d="M361.48 347.055L364.671 347.617L356.513 393.884C356.358 394.765 355.518 395.353 354.637 395.198V395.198C353.755 395.042 353.167 394.202 353.322 393.321L361.48 347.055Z" fill="#4081E7"/>
<path d="M540.529 347.055L537.339 347.617L545.497 393.884C545.652 394.765 546.492 395.353 547.373 395.198V395.198C548.254 395.042 548.843 394.202 548.687 393.321L540.529 347.055Z" fill="#4081E7"/>
<path d="M315.375 371.625H289.036V375.243H315.375V371.625Z" fill="#263238"/>
<path d="M315.421 375.271H288.992V371.562H315.421V375.271ZM289.082 375.181H315.346V371.653H289.082V375.181Z" fill="#263238"/>
<path d="M292 375.242L295.273 392.737H309.298L312.964 375.242L292 375.242Z" fill="#263238"/>
<path d="M313 375.234H292L292.146 376.234H312.78L313 375.234Z" fill="#455A64"/>
<path d="M291.478 390.969L293.5 393.748H310.552L312.963 390.969H291.478Z" fill="#455A64"/>
<path d="M301.219 374.585C301.164 374.585 301.097 365.918 301.07 355.232C301.042 344.546 301.07 335.883 301.109 335.883C301.148 335.883 301.226 344.542 301.258 355.232C301.289 365.922 301.27 374.585 301.219 374.585Z" fill="#263238"/>
<path d="M307.084 352.898C307.069 352.969 307.046 353.038 307.013 353.102C306.951 353.247 306.876 353.435 306.778 353.663L306.606 354.055C306.551 354.208 306.496 354.372 306.433 354.545C306.37 354.717 306.3 354.913 306.229 355.109C306.159 355.305 306.104 355.529 306.033 355.752C305.72 356.811 305.474 357.889 305.296 358.978C305.097 360.315 304.966 361.662 304.904 363.012C304.807 365.469 304.876 367.93 305.112 370.378C305.198 371.319 305.285 372.079 305.347 372.6C305.371 372.847 305.394 373.047 305.414 373.208C305.424 373.278 305.424 373.349 305.414 373.42C305.391 373.352 305.375 373.283 305.367 373.212C305.339 373.055 305.308 372.855 305.265 372.612C305.179 372.091 305.077 371.33 304.975 370.389C304.7 367.937 304.61 365.467 304.708 363C304.776 361.644 304.918 360.292 305.136 358.951C305.324 357.855 305.586 356.773 305.92 355.713C305.994 355.49 306.053 355.27 306.127 355.07C306.202 354.87 306.276 354.678 306.347 354.51L306.535 354.02C306.602 353.875 306.668 353.741 306.723 353.628C306.833 353.408 306.923 353.236 306.99 353.083C307.017 353.019 307.049 352.958 307.084 352.898Z" fill="#263238"/>
<path d="M306.41 345.898C306.392 345.996 306.365 346.092 306.327 346.185C306.261 346.385 306.167 346.651 306.053 346.969C305.99 347.145 305.924 347.361 305.853 347.549C305.782 347.737 305.716 348 305.641 348.25C305.485 348.752 305.308 349.321 305.147 349.963C305.065 350.281 304.975 350.614 304.885 350.963C304.795 351.312 304.724 351.68 304.638 352.061C304.454 352.813 304.32 353.629 304.152 354.487C303.862 356.208 303.607 358.113 303.43 360.116C303.254 362.119 303.191 364.036 303.164 365.792C303.136 367.549 303.164 369.109 303.254 370.43C303.278 371.088 303.317 371.684 303.352 372.209C303.387 372.735 303.415 373.182 303.45 373.55C303.485 373.919 303.497 374.189 303.513 374.401C303.518 374.5 303.518 374.599 303.513 374.699C303.488 374.602 303.472 374.504 303.466 374.405C303.438 374.193 303.407 373.911 303.364 373.558C303.321 373.205 303.278 372.739 303.234 372.217C303.191 371.696 303.14 371.096 303.109 370.434C303.019 369.117 302.984 367.541 302.98 365.789C302.976 364.036 303.062 362.115 303.23 360.101C303.399 358.086 303.67 356.181 303.967 354.456C304.144 353.601 304.281 352.778 304.473 352.025L304.732 350.928C304.83 350.579 304.92 350.246 305.01 349.928C305.175 349.285 305.363 348.717 305.528 348.219L305.755 347.521L305.974 346.945C306.1 346.612 306.202 346.349 306.28 346.161C306.316 346.07 306.359 345.982 306.41 345.898Z" fill="#263238"/>
<path d="M299.5 374.997C299.5 374.919 299.527 374.119 299.5 373.997C299.531 374.483 299.5 373.719 299.5 373.997C299.437 372.986 299.298 372.123 299.185 370.351C298.957 366.792 298.628 361.868 298.028 356.455C297.723 353.75 297.366 351.178 296.997 348.85C296.801 347.674 296.605 346.576 296.421 345.549C296.237 344.522 296.029 343.558 295.853 342.684C295.676 341.81 295.484 341.026 295.331 340.332C295.179 339.638 295.03 339.046 294.908 338.564C294.787 338.082 294.7 337.713 294.634 337.447C294.606 337.325 294.583 337.231 294.567 337.153C294.561 337.12 294.561 337.087 294.567 337.055L294.602 337.149C294.602 337.223 294.649 337.317 294.685 337.435C294.759 337.701 294.861 338.074 294.994 338.544C295.128 339.015 295.284 339.614 295.449 340.308C295.614 341.002 295.814 341.778 295.998 342.66C296.182 343.542 296.39 344.491 296.59 345.522C296.79 346.553 296.982 347.658 297.182 348.823C297.574 351.155 297.923 353.73 298.228 356.439C298.828 361.857 299.138 366.784 299.334 370.347C299.432 372.131 299.461 373.002 299.5 373.997C299.5 374.487 299.488 374.723 299.5 374.997C299.5 374.919 299.5 375.123 299.5 374.997Z" fill="#263238"/>
<path d="M301.004 340.047C300.89 338.82 299.648 337.895 298.417 337.883C297.799 337.909 297.195 338.075 296.652 338.37C296.108 338.665 295.639 339.08 295.281 339.584C294.568 340.595 294.056 341.732 293.771 342.936C292.94 345.825 292.486 348.863 292.842 351.854C293.199 354.845 294.41 357.781 296.551 359.894C296.9 360.235 297.335 360.58 297.829 360.478C298.086 360.399 298.319 360.254 298.503 360.058C300.603 358.137 302.267 355.789 303.385 353.172C304.502 350.555 305.047 347.729 304.983 344.884C304.947 343.747 304.798 342.567 304.171 341.619C303.544 340.67 302.074 339.659 301.004 340.051" fill="#92E3A9"/>
<path d="M291.799 330.215L290.062 333.351C290.019 333.426 289.968 333.508 289.882 333.516C289.796 333.524 289.725 333.437 289.674 333.359L285.084 326.303L286.142 325.703L291.799 330.215Z" fill="#92E3A9"/>
<g opacity="0.2">
<path d="M291.799 330.215L290.062 333.351C290.019 333.426 289.968 333.508 289.882 333.516C289.796 333.524 289.725 333.437 289.674 333.359L285.084 326.303L286.142 325.703L291.799 330.215Z" fill="black"/>
</g>
<path d="M301.101 335.885L285.449 326.665C285.292 326.567 285.116 326.457 285.057 326.273C284.998 326.089 285.167 325.818 285.335 325.646C286.413 324.526 287.719 323.652 289.166 323.083C290.612 322.515 292.164 322.266 293.716 322.353C295.264 322.464 296.762 322.95 298.081 323.769C299.399 324.589 300.498 325.717 301.282 327.057C302.791 329.758 302.85 333.329 301.109 335.893" fill="#92E3A9"/>
<path d="M287.707 323.696C287.773 323.679 287.842 323.671 287.911 323.673C288.048 323.673 288.248 323.641 288.503 323.641C289.23 323.633 289.957 323.691 290.674 323.814C293.063 324.22 295.287 325.294 297.092 326.911C298.881 328.544 300.171 330.65 300.812 332.987C301.007 333.688 301.138 334.406 301.204 335.131C301.231 335.386 301.204 335.452 301.227 335.586C301.214 335.709 301.173 335.827 301.106 335.931C301.153 335.672 301.161 335.408 301.129 335.147C300.819 332.404 299.632 329.834 297.746 327.818C295.86 325.802 293.375 324.447 290.659 323.955C289.949 323.82 289.229 323.742 288.507 323.724C287.993 323.704 287.707 323.712 287.707 323.696Z" fill="#263238"/>
<path d="M294.504 337.385C293.156 336.362 291.733 336.162 290.043 336.209C288.352 336.321 286.697 336.748 285.163 337.468C282.525 338.624 280.039 340.329 278.464 342.744C276.888 345.159 276.335 348.35 277.519 350.976C277.611 351.25 277.801 351.48 278.052 351.623C278.346 351.706 278.66 351.683 278.938 351.556C281.941 350.576 284.963 349.596 287.727 348.052C290.49 346.507 292.999 344.387 294.481 341.595C294.862 340.938 295.105 340.21 295.194 339.455C295.234 339.077 295.193 338.695 295.074 338.334C294.955 337.973 294.761 337.642 294.504 337.362" fill="#92E3A9"/>
<path d="M294.532 337.07C294.462 337.107 294.388 337.136 294.312 337.157L293.685 337.376L293.231 337.525C293.066 337.584 292.889 337.658 292.697 337.733C292.305 337.886 291.874 338.042 291.412 338.266L290.675 338.603C290.42 338.721 290.165 338.866 289.891 338.995C289.346 339.262 288.797 339.603 288.209 339.952C286.959 340.738 285.77 341.619 284.654 342.586C283.552 343.571 282.526 344.638 281.584 345.777C281.165 346.318 280.757 346.819 280.408 347.345C280.236 347.596 280.059 347.827 279.91 348.066L279.483 348.756C279.201 349.187 278.993 349.603 278.793 349.963C278.695 350.144 278.597 350.308 278.519 350.465L278.311 350.896L278.017 351.492C277.987 351.565 277.948 351.634 277.899 351.696C277.92 351.62 277.948 351.547 277.982 351.476C278.048 351.32 278.135 351.116 278.244 350.865L278.44 350.422C278.515 350.265 278.605 350.096 278.699 349.912C278.891 349.548 279.091 349.128 279.369 348.685L279.789 347.988C279.938 347.748 280.11 347.509 280.279 347.254C280.612 346.741 281.016 346.231 281.455 345.686C283.318 343.355 285.573 341.365 288.119 339.806C288.711 339.462 289.267 339.124 289.82 338.862C290.095 338.725 290.349 338.583 290.604 338.47L291.349 338.144C291.819 337.925 292.266 337.78 292.654 337.635C292.846 337.564 293.046 337.498 293.191 337.443L293.654 337.306L294.297 337.121C294.373 337.094 294.452 337.077 294.532 337.07Z" fill="#263238"/>
<path d="M297.225 360.309C297.208 360.24 297.2 360.169 297.201 360.097C297.201 359.941 297.201 359.741 297.174 359.498C297.15 358.972 297.143 358.216 297.174 357.279C297.205 356.342 297.252 355.229 297.366 353.994C297.48 352.759 297.664 351.411 297.915 350C298.166 348.588 298.487 347.256 298.809 346.08C299.13 344.904 299.471 343.814 299.785 342.944C300.098 342.073 300.369 341.348 300.569 340.862L300.804 340.309C300.829 340.242 300.862 340.177 300.902 340.117C300.888 340.187 300.867 340.256 300.839 340.321C300.788 340.47 300.718 340.658 300.635 340.889C300.451 341.379 300.196 342.093 299.902 342.983C299.608 343.873 299.287 344.943 298.965 346.119C298.644 347.295 298.354 348.639 298.095 350.039C297.836 351.438 297.66 352.783 297.531 354.014C297.401 355.244 297.331 356.366 297.296 357.287C297.26 358.208 297.245 358.976 297.245 359.498C297.245 359.745 297.245 359.945 297.245 360.101C297.243 360.171 297.236 360.24 297.225 360.309Z" fill="#263238"/>
<path d="M306.217 346.397L307.632 346.28C308.635 346.199 309.608 345.902 310.486 345.409C310.913 345.157 311.357 344.933 311.815 344.739C313.563 344.037 315.511 344.163 317.393 344.069C320.473 343.914 323.491 343.142 326.268 341.799C326.432 341.727 326.569 341.605 326.66 341.45C326.95 340.921 326.413 340.451 325.946 340.165C323.567 338.698 321.144 337.213 318.443 336.484C315.742 335.755 312.677 335.876 310.372 337.464C307.667 339.326 306.683 343.148 306.225 346.397" fill="#92E3A9"/>
<path d="M326.683 341.282C326.601 341.248 326.522 341.21 326.444 341.168L325.774 340.819C325.193 340.513 324.358 340.062 323.3 339.553C322.07 338.949 320.788 338.456 319.47 338.079C317.858 337.621 316.171 337.487 314.507 337.687C312.838 337.878 311.262 338.56 309.98 339.647C308.98 340.579 308.179 341.704 307.628 342.955C307.134 344.014 306.844 344.915 306.605 345.535C306.499 345.829 306.417 346.064 306.354 346.244C306.331 346.331 306.296 346.414 306.252 346.491C306.266 346.405 306.287 346.32 306.315 346.236L306.534 345.511C306.808 344.623 307.134 343.751 307.51 342.901C308.05 341.621 308.851 340.469 309.862 339.518C311.168 338.405 312.776 337.709 314.48 337.518C316.171 337.308 317.887 337.442 319.525 337.91C320.85 338.299 322.136 338.81 323.367 339.435C324.421 339.961 325.248 340.427 325.817 340.752L326.471 341.144C326.548 341.18 326.619 341.227 326.683 341.282Z" fill="#263238"/>
<path d="M308.299 352.403C306.951 352.046 305.343 353.359 305.065 354.724C304.787 356.088 305.3 357.487 305.9 358.745C307.185 361.566 309.09 364.06 311.474 366.041C313.88 368.019 316.886 369.124 320 369.177C319.432 366.527 320.149 363.763 319.832 361.074C319.552 358.707 318.478 356.505 316.785 354.827C315.091 353.15 312.879 352.096 310.51 351.838C309.651 351.744 308.656 351.607 308.311 352.403" fill="#92E3A9"/>
<path d="M320 369.184C319.933 369.16 319.869 369.13 319.808 369.094C319.63 368.996 319.461 368.883 319.302 368.757C318.737 368.264 318.284 367.656 317.973 366.973C317.758 366.557 317.519 366.103 317.283 365.601L316.558 363.998C316.296 363.409 315.998 362.837 315.665 362.285C315.3 361.699 314.891 361.142 314.441 360.619C313.516 359.533 312.529 358.596 311.67 357.698C310.892 356.917 310.184 356.07 309.553 355.166C309.133 354.556 308.787 353.898 308.522 353.206C308.436 352.959 308.373 352.763 308.342 352.63C308.32 352.562 308.306 352.493 308.299 352.422C308.299 352.422 308.393 352.696 308.589 353.182C308.878 353.859 309.238 354.503 309.663 355.103C310.303 355.991 311.015 356.825 311.792 357.596C312.654 358.482 313.65 359.415 314.583 360.513C315.04 361.043 315.455 361.609 315.821 362.206C316.156 362.765 316.455 363.345 316.715 363.943C316.966 364.507 317.201 365.048 317.425 365.554C317.648 366.06 317.883 366.51 318.091 366.93C318.385 367.604 318.813 368.211 319.349 368.713C319.745 369.039 320.012 369.164 320 369.184Z" fill="#263238"/>
<defs>
<filter id="filter0_f_2214_17" x="0" y="0" width="896" height="643" filterUnits="userSpaceOnUse" color-interpolation-filters="sRGB">
<feFlood flood-opacity="0" result="BackgroundImageFix"/>
<feBlend mode="normal" in="SourceGraphic" in2="BackgroundImageFix" result="shape"/>
<feGaussianBlur stdDeviation="75" result="effect1_foregroundBlur_2214_17"/>
</filter>
<linearGradient id="paint0_linear_2214_17" x1="450.6" y1="283.047" x2="450.6" y2="330.027" gradientUnits="userSpaceOnUse">
<stop stop-color="#1166C1"/>
<stop offset="1" stop-color="#49A0FD"/>
</linearGradient>
</defs>
</svg>
